<svg width="512" height="512" xmlns="http://www.w3.org/2000/svg">
  <defs>
    <linearGradient id="grad" x1="0%" y1="0%" x2="100%" y2="100%">
      <stop offset="0%" style="stop-color:#667eea;stop-opacity:1" />
      <stop offset="100%" style="stop-color:#764ba2;stop-opacity:1" />
    </linearGradient>
  </defs>
  
  <rect width="512" height="512" fill="url(#grad)" rx="80"/>
  
  <g transform="translate(256, 256)">
    <rect x="-120" y="-80" width="240" height="160" fill="white" opacity="0.95" rx="8"/>
    <path d="M -140 -80 L 0 -140 L 140 -80" fill="white" opacity="0.95"/>
    <rect x="-8" y="-180" width="16" height="100" fill="white" opacity="0.95"/>
    <path d="M 8 -170 L 80 -150 L 8 -130 Z" fill="#FFD700"/>
    <rect x="-30" y="20" width="60" height="60" fill="#667eea" rx="4"/>
    <rect x="-100" y="-50" width="40" height="40" fill="#667eea" rx="4"/>
    <rect x="-40" y="-50" width="40" height="40" fill="#667eea" rx="4"/>
    <rect x="20" y="-50" width="40" height="40" fill="#667eea" rx="4"/>
    <rect x="80" y="-50" width="40" height="40" fill="#667eea" rx="4"/>
    <g transform="translate(0, -100)">
      <rect x="-15" y="-10" width="30" height="20" fill="white" rx="2"/>
      <line x1="-15" y1="0" x2="15" y2="0" stroke="#667eea" stroke-width="2"/>
    </g>
  </g>
  
  <text x="256" y="460" font-family="Arial, sans-serif" font-size="72" font-weight="bold" text-anchor="middle" fill="white">CEI</text>
</svg>
